# xmcd
#
# Track frame offsets: 
#        150
#        18348
#        34746
#        56875
#        74508
#        96489
#        114290
#        133247
#        147234
#        165982
#        182715
#        203689
#        219664
#        239633
#        255207
#        273302
#        291268
#        308795
#        326948
#
# Disc length: 4536 seconds
#
# Revision: 0
# Processed by: cddbd v1.5.2PL0 Copyright (c) Steve Scherf et al.
# Submitted via: ExactAudioCopy v1.1
#
DISCID=2611b613
DTITLE=Виктор Салтыков и Унесённые ветром - Виктор Салтыков и Унесённы
DTITLE=е ветром
DYEAR=2013
DGENRE=Folk/Rock
TTITLE0=Салтыков - Белая ночь
TTITLE1=Унесённая ветром - Давай наливай
TTITLE2=Салтыков - Родная
TTITLE3=Унесённая ветром - Какао
TTITLE4=Салтыков - Островок
TTITLE5=Унесённая ветром - День рожденья
TTITLE6=Салтыков - Перелётные птицы
TTITLE7=Унесённая ветром - Полтергейст
TTITLE8=Салтыков - Невесомость
TTITLE9=Унесённая ветром - Цветные сны
TTITLE10=Салтыков - Кони в яблоках
TTITLE11=Унесённая ветром - Серые капли
TTITLE12=Салтыков - Влюблённые люди
TTITLE13=Унесённая ветром - Мотылёк
TTITLE14=Салтыков - Ты замуж за него не выходи
TTITLE15=Унесённая ветром - Свадебные кольца
TTITLE16=Салтыков - Улетели листья
TTITLE17=Унесённая ветром - День без любви
TTITLE18=Салтыков - Американцы
EXTD=
EXTT0=
EXTT1=
EXTT2=
EXTT3=
EXTT4=
EXTT5=
EXTT6=
EXTT7=
EXTT8=
EXTT9=
EXTT10=
EXTT11=
EXTT12=
EXTT13=
EXTT14=
EXTT15=
EXTT16=
EXTT17=
EXTT18=
PLAYORDER=
